<svg width="52" height="62" viewBox="0 0 52 62" fill="none" xmlns="http://www.w3.org/2000/svg">
<path d="M28.4089 0.990978L50.7998 23.3814C51.439 24.0205 51.7898 24.8724 51.7898 25.7807C51.7898 26.69 51.4385 27.5414 50.7998 28.1805L48.7664 30.2134C48.1283 30.8521 47.2759 31.2039 46.3671 31.2039C45.4588 31.2039 44.5777 30.8521 43.9396 30.2134L30.8486 17.1512L30.8486 58.6505C30.8486 60.5216 29.3838 62 27.5122 62L24.6375 62C22.766 62 21.1535 60.5216 21.1535 58.6505L21.1535 17.003L7.98942 30.2129C7.35027 30.8516 6.52109 31.2034 5.61227 31.2034C4.70446 31.2034 3.86318 30.8516 3.22453 30.2129L1.1977 28.18C0.558556 27.5409 0.210251 26.6895 0.210251 25.7802C0.210251 24.8719 0.563092 24.02 1.20224 23.3809L23.5926 0.990474C24.2338 0.349811 25.0897 -0.00252565 25.9995 -4.12224e-06C26.9124 -0.00202209 27.7688 0.349811 28.4089 0.990978Z" fill="white"/>
</svg>
