<svg width="108" height="108" viewBox="0 0 108 108" fill="none" xmlns="http://www.w3.org/2000/svg">
<circle cx="54" cy="54" r="54" fill="#BAD4F2"/>
<path d="M71.2558 41.4506V41.0753C71.2558 40.7076 70.9705 40.4149 70.6121 40.4149H34.815C34.4566 40.4149 34.1713 40.7151 34.1713 41.0753V44.4C34.1713 44.7677 34.4566 45.0604 34.815 45.0604H65.3311C67.0573 43.5144 69.0615 42.2836 71.2558 41.4506ZM61.6007 49.5858H34.8004C34.442 49.5858 34.1567 49.8785 34.1567 50.2462V53.5409C34.1567 53.9086 34.4493 54.2013 34.8004 54.2013H59.5965C60.0719 52.5652 60.7522 51.0117 61.6007 49.5858ZM34.8077 59.102C34.4493 59.102 34.164 59.3947 34.164 59.7624V62.952C34.164 63.3197 34.4566 63.6124 34.8077 63.6124H59.1796C58.9382 62.3741 58.8139 61.0833 58.8139 59.7624C58.8139 59.5373 58.8139 59.3121 58.8285 59.0945L34.8077 59.102ZM63.2903 72.3556H26.3887C25.4963 72.3556 24.7722 71.6126 24.7722 70.697V33.3378C24.7722 32.4222 25.4963 31.6792 26.3887 31.6792H69.1931C70.0855 31.6792 71.3582 32.167 72.0385 32.7599C73.4355 33.9907 74.8253 35.214 76.215 36.4523C77.3488 37.458 78.4752 38.4636 79.6017 39.4693C79.865 39.7094 80.1137 40.0396 80.3112 40.4149C81.3791 40.5575 82.425 40.7901 83.4271 41.1053V30.6586C83.4271 29.743 82.703 29 81.8106 29H23.6165C22.7241 29 22 29.743 22 30.6586V73.3762C22 74.2918 22.7241 75.0348 23.6165 75.0348H65.9748C64.9946 74.2318 64.1022 73.3312 63.2903 72.3556ZM85.4825 55.1469C84.9412 54.0662 84.6779 52.9855 84.9193 51.7622C85.168 50.4939 84.7218 49.4958 83.5368 48.9479C82.3153 48.3925 81.401 47.5295 80.8085 46.2912C80.2526 45.1354 79.3018 44.7002 78.1022 44.9703C76.8148 45.263 75.6299 45.0904 74.4596 44.475C73.3624 43.8971 72.331 44.0773 71.5118 45.0454C70.6853 46.021 69.6686 46.5989 68.4397 46.779C67.05 46.9891 66.3405 47.8222 66.1869 49.2256C66.0552 50.4264 65.6236 51.477 64.7605 52.3401C63.7585 53.3458 63.5756 54.479 64.329 55.7473C64.9507 56.7905 65.119 57.9012 64.8922 59.1245C64.6655 60.3328 65.0458 61.3534 66.2161 61.8863C67.5474 62.4942 68.5129 63.4473 69.1639 64.7832C69.3906 65.2485 69.7125 65.5937 70.1148 65.7888V77.7891C70.1148 78.7047 70.4878 78.8097 70.9486 78.0292L74.0938 72.7008C74.5547 71.9203 75.308 71.9203 75.7689 72.7008L78.9141 78.0292C79.3749 78.8097 79.7479 78.7047 79.7479 77.7891V64.7757C79.7479 64.7306 79.7406 64.6931 79.7333 64.6481C80.2526 64.3629 80.8232 64.1678 81.4376 64.0402C82.9371 63.7325 83.4052 63.2071 83.6173 61.6461C83.7855 60.4453 84.2098 59.4172 85.0436 58.5316C86.192 57.3083 86.2652 56.7004 85.4825 55.1469ZM74.8619 62.8994C70.8608 62.8694 67.679 59.5598 67.6863 55.4321C67.701 51.2444 70.8828 47.9948 74.9716 48.0098C78.9141 48.0248 82.1764 51.342 82.1983 55.3646C82.2202 59.4997 78.8775 62.9295 74.8619 62.8994ZM80.5525 55.4546C80.5525 58.6367 78.0364 61.2183 74.935 61.2183C71.8337 61.2183 69.3175 58.6367 69.3175 55.4546C69.3175 52.2726 71.8337 49.6909 74.935 49.6909C78.0364 49.6909 80.5525 52.2726 80.5525 55.4546Z" fill="#0073FB"/>
</svg>
