<svg width="108" height="108" viewBox="0 0 108 108" fill="none" xmlns="http://www.w3.org/2000/svg">
<circle cx="54" cy="54" r="54" fill="#BAD4F2"/>
<path d="M35.4828 57.9918L48.6339 63.6583C48.7553 63.7079 48.848 63.6441 48.848 63.5165V60.1832C48.848 60.0556 48.7481 59.9137 48.6268 59.8641L39.6001 56.3323C39.4788 56.2827 39.4788 56.2118 39.6001 56.1621L48.6268 52.7083C48.7481 52.6587 48.848 52.5239 48.848 52.3892V49.0276C48.848 48.8999 48.7553 48.8361 48.6339 48.8858L35.4828 54.5522C35.3615 54.6019 35.2688 54.7508 35.2688 54.8785V57.6585C35.2688 57.7933 35.3615 57.9351 35.4828 57.9918ZM51.8593 66.332C52.2303 66.332 52.5086 66.2469 52.7013 66.0837C52.894 65.9206 53.0367 65.6866 53.1366 65.3958C53.2293 65.1051 53.3435 64.7008 53.4648 64.1902L57.2467 48.7226C57.4323 47.9922 57.5322 47.4816 57.5322 47.205C57.5322 46.8291 57.4109 46.5312 57.1754 46.3185C56.9328 46.1057 56.5903 45.9993 56.1407 45.9993C55.6198 45.9993 55.2702 46.1483 55.0846 46.4603C54.9062 46.7653 54.7207 47.3255 54.5209 48.1482L50.7533 63.6157C50.5749 64.4384 50.4821 64.949 50.4821 65.1547C50.4821 65.9419 50.9388 66.332 51.8593 66.332ZM59.3661 63.6796L72.5172 57.9918C72.6385 57.9422 72.7313 57.7933 72.7313 57.6656V54.9139C72.7313 54.7863 72.6385 54.6373 72.5172 54.5877L59.3661 48.9496C59.2448 48.8999 59.152 48.9638 59.152 49.0914V52.3892C59.152 52.5168 59.2519 52.6587 59.3732 52.7083L68.4284 56.1905C68.5497 56.2401 68.5497 56.311 68.4284 56.3607L59.3732 59.8925C59.2519 59.9421 59.152 60.084 59.152 60.2116V63.5448C59.152 63.6654 59.2448 63.7292 59.3661 63.6796ZM81.4725 27H26.5275C24.4581 27 22.7812 28.6666 22.7812 30.7233V77.8848C22.7812 79.9414 24.4581 81.608 26.5275 81.608H81.4725C83.5419 81.608 85.2188 79.9414 85.2188 77.8848V30.7233C85.2188 28.6666 83.5419 27 81.4725 27ZM81.4725 77.8848H26.5275V36.9287H81.4725V77.8848Z" fill="#0073FB"/>
</svg>
