<svg width="69" height="29" viewBox="0 0 69 29" fill="none" xmlns="http://www.w3.org/2000/svg">
<path d="M0.862345 13H3.50502V7.42257L5.98078 11.2197H6.03642L8.52609 7.40867V13H11.2105V3.26385H8.35918L6.03642 7.03313L3.71365 3.26385H0.862345V13ZM12.9375 13H20.8377V10.705H15.6079V9.16117H20.2813V7.03313H15.6079V5.54489H20.7681V3.26385H12.9375V13ZM22.2281 13H24.8986V7.65902L29.0712 13H31.4218V3.26385H28.7513V8.4101L24.7456 3.26385H22.2281V13ZM35.5271 13H38.2254V5.62834H41.1462V3.26385H32.6201V5.62834H35.5271V13Z" fill="white"/>
<path d="M23.9942 24.153H26.7344L27.4093 22.4522H31.0674L31.7423 24.153H34.55L30.5274 14.6366H28.0032L23.9942 24.153ZM28.1787 20.4139L29.2451 17.7412L30.298 20.4139H28.1787ZM35.5343 24.153H38.153V14.7041H35.5343V24.153Z" fill="white"/>
<path d="M65.1053 27.8613H46.6842C44.5263 27.8613 42.7895 26.1245 42.7895 23.9666V5.54555C42.7895 3.38766 44.5263 1.65082 46.6842 1.65082H65.1053C67.2632 1.65082 69 3.38766 69 5.54555V23.9666C69 26.1245 67.2632 27.8613 65.1053 27.8613Z" fill="white"/>
<path d="M55.8947 9.0719C53 9.0719 50.6315 11.4403 50.6315 14.3351H61.1578C61.1578 11.4403 58.7894 9.0719 55.8947 9.0719Z" fill="#0073FB"/>
<path d="M55.8947 20.3877C52.5263 20.3877 49.8421 17.6508 49.8421 14.335H51.421C51.421 16.8087 53.421 18.8087 55.8947 18.8087C58.3684 18.8087 60.3684 16.8087 60.3684 14.335H61.9474C62 17.7034 59.2632 20.3877 55.8947 20.3877Z" fill="#0073FB"/>
<path d="M55.8947 23.9666C50.8421 23.9666 46.6842 19.8614 46.6842 14.7561C46.6842 9.65086 50.7895 5.54559 55.8947 5.54559C61 5.54559 65.1053 9.65086 65.1053 14.7561C65.1053 19.8614 61 23.9666 55.8947 23.9666ZM55.8947 7.28244C51.7895 7.28244 48.421 10.6509 48.421 14.7561C48.421 18.8614 51.7895 22.2298 55.8947 22.2298C60 22.2298 63.3684 18.8614 63.3684 14.7561C63.3684 10.6509 60.0526 7.28244 55.8947 7.28244Z" fill="#0073FB"/>
</svg>
