<svg width="67" height="28" viewBox="0 0 67 28" fill="none" xmlns="http://www.w3.org/2000/svg">
<g clip-path="url(#clip0)">
<path d="M0.837349 12H3.40342V6.58424L5.80742 10.2713H5.86145L8.27895 6.57073V12H10.8855V2.54605H8.11689L5.86145 6.20608L3.606 2.54605H0.837349V12ZM12.5625 12H20.2337V9.77157H15.1555V8.27244H19.6934V6.20608H15.1555V4.76098H20.1661V2.54605H12.5625V12ZM21.5838 12H24.1769V6.81384L28.2286 12H30.511V2.54605H27.9179V7.54314L24.0283 2.54605H21.5838V12ZM34.4973 12H37.1174V4.84201H39.9536V2.54605H31.6746V4.84201H34.4973V12Z" fill="#0073FB"/>
<path d="M23.2988 23.8008H25.9595L26.6149 22.1493H30.1669L30.8223 23.8008H33.5486L29.6426 14.5602H27.1916L23.2988 23.8008ZM27.362 20.1701L28.3975 17.5749L29.4198 20.1701H27.362ZM34.5044 23.8008H37.0472V14.6258H34.5044V23.8008Z" fill="#0073FB"/>
<path d="M63.2181 27.0538H45.331C43.2357 27.0538 41.5492 25.3673 41.5492 23.272V5.38487C41.5492 3.28953 43.2357 1.60303 45.331 1.60303H63.2181C65.3135 1.60303 67 3.28953 67 5.38487V23.272C67 25.3673 65.3135 27.0538 63.2181 27.0538Z" fill="#0073FB"/>
<path d="M54.2745 8.80902C51.4637 8.80902 49.1639 11.1088 49.1639 13.9196H59.3851C59.3851 11.1088 57.0854 8.80902 54.2745 8.80902Z" fill="white"/>
<path d="M54.2745 19.7968C51.0037 19.7968 48.3973 17.1393 48.3973 13.9196H49.9305C49.9305 16.3216 51.8725 18.2636 54.2745 18.2636C56.6765 18.2636 58.6185 16.3216 58.6185 13.9196H60.1517C60.2028 17.1904 57.5453 19.7968 54.2745 19.7968Z" fill="white"/>
<path d="M54.2746 23.272C49.3684 23.272 45.3311 19.2857 45.3311 14.3284C45.3311 9.37116 49.3173 5.38489 54.2746 5.38489C59.2319 5.38489 63.2182 9.37116 63.2182 14.3284C63.2182 19.2857 59.2319 23.272 54.2746 23.272ZM54.2746 7.07139C50.2883 7.07139 47.0176 10.3422 47.0176 14.3284C47.0176 18.3147 50.2883 21.5855 54.2746 21.5855C58.2609 21.5855 61.5317 18.3147 61.5317 14.3284C61.5317 10.3422 58.312 7.07139 54.2746 7.07139Z" fill="white"/>
</g>
<defs>
<clipPath id="clip0">
<rect width="67" height="27.4439" fill="white"/>
</clipPath>
</defs>
</svg>
