<svg width="132" height="54" viewBox="0 0 132 54" fill="none" xmlns="http://www.w3.org/2000/svg">
<g clip-path="url(#clip0)">
<path d="M1.63846 24H6.65953V13.4029L11.3635 20.6174H11.4692L16.1996 13.3765V24H21.2999V5.50131H15.8824L11.4692 12.6629L7.05593 5.50131H1.63846V24ZM24.5812 24H39.5915V19.6396H29.6551V16.7062H38.5345V12.6629H29.6551V9.83529H39.4594V5.50131H24.5812V24ZM42.2334 24H47.3073V13.8521L55.2353 24H59.7014V5.50131H54.6275V15.2792L47.0166 5.50131H42.2334V24ZM67.5014 24H72.6282V9.99385H78.1778V5.50131H61.9783V9.99385H67.5014V24Z" fill="#0073FB"/>
<path d="M45.589 46.0907H50.7954L52.0777 42.8592H59.028L60.3104 46.0907H65.645L58.0022 28.0096H53.2062L45.589 46.0907ZM53.5396 38.9865L55.5657 33.9084L57.5662 38.9865H53.5396ZM67.5152 46.0907H72.4907V28.1378H67.5152V46.0907Z" fill="#0073FB"/>
<path d="M123.7 52.9366H88.7C84.6 52.9366 81.3 49.6366 81.3 45.5366V10.5366C81.3 6.4366 84.6 3.1366 88.7 3.1366H123.7C127.8 3.1366 131.1 6.4366 131.1 10.5366V45.5366C131.1 49.6366 127.8 52.9366 123.7 52.9366Z" fill="#0073FB"/>
<path d="M106.2 17.2366C100.7 17.2366 96.2 21.7366 96.2 27.2366H116.2C116.2 21.7366 111.7 17.2366 106.2 17.2366Z" fill="white"/>
<path d="M106.2 38.7366C99.8 38.7366 94.7 33.5366 94.7 27.2366H97.7C97.7 31.9366 101.5 35.7366 106.2 35.7366C110.9 35.7366 114.7 31.9366 114.7 27.2366H117.7C117.8 33.6366 112.6 38.7366 106.2 38.7366Z" fill="white"/>
<path d="M106.2 45.5366C96.6 45.5366 88.7 37.7366 88.7 28.0366C88.7 18.3366 96.5 10.5366 106.2 10.5366C115.9 10.5366 123.7 18.3366 123.7 28.0366C123.7 37.7366 115.9 45.5366 106.2 45.5366ZM106.2 13.8366C98.4 13.8366 92 20.2366 92 28.0366C92 35.8366 98.4 42.2366 106.2 42.2366C114 42.2366 120.4 35.8366 120.4 28.0366C120.4 20.2366 114.1 13.8366 106.2 13.8366Z" fill="white"/>
</g>
<defs>
<clipPath id="clip0">
<rect width="131.1" height="53.7" fill="white"/>
</clipPath>
</defs>
</svg>
