<svg width="108" height="108" viewBox="0 0 108 108" fill="none" xmlns="http://www.w3.org/2000/svg">
<circle cx="54" cy="54" r="54" fill="#BAD4F2"/>
<path d="M81.8747 28.6182C81.6187 26.9729 80.825 26.222 79.2122 26.1045C78.5017 26.0457 77.7977 26.0196 77.0873 26.0196C61.6049 25.9935 46.1546 25.9935 30.6786 26.0196C29.8274 26.0196 28.9825 26.1045 28.1569 26.2481C26.9984 26.4505 26.4032 27.2863 26.1728 28.4158C26.0896 29.0492 26 29.689 26 30.3224V62.394C26 62.8837 26.0256 63.406 26.0832 63.8957C26.3968 65.7696 27.1009 66.4683 28.9697 66.5205C32.5091 66.5793 36.0421 66.5793 39.6071 66.6054H40.7399V79.8532C40.7399 80.4865 40.7143 81.1786 41.4183 81.4986C42.1288 81.8446 42.5768 81.3811 43.0568 80.924C48.0107 76.3078 52.9325 71.6851 57.9119 67.0951C58.2256 66.8078 58.7632 66.6315 59.2112 66.6315C65.3235 66.5727 71.4358 66.6054 77.5481 66.5727C78.3673 66.5727 79.2186 66.4878 80.0378 66.3442C81.0875 66.1418 81.6507 65.4236 81.8235 64.3789C81.9067 63.7456 81.9963 63.0796 81.9963 62.4136V30.2636C82.0155 29.7151 81.9579 29.1667 81.8747 28.6182ZM34.8964 44.1187H53.9693V48.5063H34.8964V44.1187ZM65.7715 57.5167H34.8964V53.129H65.7715V57.5167ZM73.1319 39.4698H34.8964V35.1083H73.1255V39.4698H73.1319Z" fill="#0073FB"/>
</svg>
