<svg width="163" height="163" viewBox="0 0 163 163" fill="none" xmlns="http://www.w3.org/2000/svg">
<path d="M138.098 162.2H24.102C10.7482 162.2 0 151.452 0 138.098V24.102C0 10.7482 10.7482 0 24.102 0H138.098C151.452 0 162.2 10.7482 162.2 24.102V138.098C162.2 151.452 151.452 162.2 138.098 162.2Z" fill="white"/>
<path d="M81.0996 45.924C63.1859 45.924 48.5293 60.5806 48.5293 78.4942H113.67C113.67 60.5806 99.0132 45.924 81.0996 45.924Z" fill="#0073FB"/>
<path d="M81.0994 115.95C60.2544 115.95 43.6436 99.0134 43.6436 78.4941H53.4146C53.4146 93.8022 65.7914 106.179 81.0994 106.179C96.4074 106.179 108.784 93.8022 108.784 78.4941H118.555C118.881 99.3391 101.944 115.95 81.0994 115.95Z" fill="#0073FB"/>
<path d="M81.0996 138.098C49.8321 138.098 24.1016 112.693 24.1016 81.1001C24.1016 49.5069 49.5064 24.1021 81.0996 24.1021C112.693 24.1021 138.098 49.5069 138.098 81.1001C138.098 112.693 112.693 138.098 81.0996 138.098ZM81.0996 34.8502C55.6947 34.8502 34.8498 55.6952 34.8498 81.1001C34.8498 106.505 55.6947 127.35 81.0996 127.35C106.504 127.35 127.349 106.505 127.349 81.1001C127.349 55.6952 106.83 34.8502 81.0996 34.8502Z" fill="#0073FB"/>
</svg>
